HIERARCHY
ROOT Hips
{
	OFFSET 0.000000 0.000000 0.000000
	CHANNELS 6 Xposition Yposition Zposition Xrotation Yrotation Zrotation
	JOINT Spine
	{
		OFFSET 0.000000 0.042231 0.063346
		CHANNELS 3 Xrotation Yrotation Zrotation
		JOINT Spine1
		{
			OFFSET 0.000000 0.014667 0.083179
			CHANNELS 3 Xrotation Yrotation Zrotation
			JOINT Spine2
			{
				OFFSET 0.000000 0.007361 0.084141
				CHANNELS 3 Xrotation Yrotation Zrotation
				JOINT Spine3
				{
					OFFSET 0.000000 0.000000 0.084462
					CHANNELS 3 Xrotation Yrotation Zrotation
					JOINT Neck
					{
						OFFSET 0.000000 -0.031673 0.221713
						CHANNELS 3 Xrotation Yrotation Zrotation
						JOINT Head
						{
							OFFSET 0.000000 -0.020167 0.114371
							CHANNELS 3 Xrotation Yrotation Zrotation
							End Site
							{
								OFFSET 0.000000 0.000000 0.000000
							}
						}
					}
					JOINT RightShoulder
					{
						OFFSET -0.029161 -0.048602 0.157471
						CHANNELS 3 Xrotation Yrotation Zrotation
						JOINT RightArm
						{
							OFFSET -0.144834 0.000000 0.000000
							CHANNELS 3 Xrotation Yrotation Zrotation
							JOINT RightForeArm
							{
								OFFSET -0.274949 0.000000 0.000000
								CHANNELS 3 Xrotation Yrotation Zrotation
								JOINT RightHand
								{
									OFFSET -0.254725 0.000000 0.000000
									CHANNELS 3 Xrotation Yrotation Zrotation
									JOINT RightHandEnd
									{
										OFFSET -0.068160 0.000000 0.000000
										CHANNELS 3 Xrotation Yrotation Zrotation
										End Site
										{
											OFFSET 0.000000 0.000000 0.000000
										}
									}
									JOINT RightHandThumb1
									{
										OFFSET -0.027264 -0.045440 -0.018176
										CHANNELS 3 Xrotation Yrotation Zrotation
										End Site
										{
											OFFSET 0.000000 0.000000 0.000000
										}
									}
								}
							}
						}
					}
					JOINT LeftShoulder
					{
						OFFSET 0.029161 -0.048602 0.157471
						CHANNELS 3 Xrotation Yrotation Zrotation
						JOINT LeftArm
						{
							OFFSET 0.144834 0.000000 0.000000
							CHANNELS 3 Xrotation Yrotation Zrotation
							JOINT LeftForeArm
							{
								OFFSET 0.274949 0.000000 0.000000
								CHANNELS 3 Xrotation Yrotation Zrotation
								JOINT LeftHand
								{
									OFFSET 0.254725 0.000000 0.000000
									CHANNELS 3 Xrotation Yrotation Zrotation
									JOINT LeftHandEnd
									{
										OFFSET 0.068160 0.000000 0.000000
										CHANNELS 3 Xrotation Yrotation Zrotation
										End Site
										{
											OFFSET 0.000000 0.000000 0.000000
										}
									}
									JOINT LeftHandThumb1
									{
										OFFSET 0.027264 -0.045440 -0.018176
										CHANNELS 3 Xrotation Yrotation Zrotation
										End Site
										{
											OFFSET 0.000000 0.000000 0.000000
										}
									}
								}
							}
						}
					}
				}
			}
		}
	}
	JOINT RightUpLeg
	{
		OFFSET -0.086512 0.000000 -0.025273
		CHANNELS 3 Xrotation Yrotation Zrotation
		JOINT RightLeg
		{
			OFFSET 0.000000 0.000000 -0.433119
			CHANNELS 3 Xrotation Yrotation Zrotation
			JOINT RightFoot
			{
				OFFSET 0.000000 0.000000 -0.404688
				CHANNELS 3 Xrotation Yrotation Zrotation
				JOINT RightToeBase
				{
					OFFSET 0.000000 -0.126496 -0.046041
					CHANNELS 3 Xrotation Yrotation Zrotation
					End Site
					{
						OFFSET 0.000000 0.000000 0.000000
					}
				}
			}
		}
	}
	JOINT LeftUpLeg
	{
		OFFSET 0.086512 0.000000 -0.025273
		CHANNELS 3 Xrotation Yrotation Zrotation
		JOINT LeftLeg
		{
			OFFSET 0.000000 0.000000 -0.433119
			CHANNELS 3 Xrotation Yrotation Zrotation
			JOINT LeftFoot
			{
				OFFSET 0.000000 0.000000 -0.404688
				CHANNELS 3 Xrotation Yrotation Zrotation
				JOINT LeftToeBase
				{
					OFFSET 0.000000 -0.126496 -0.046041
					CHANNELS 3 Xrotation Yrotation Zrotation
					End Site
					{
						OFFSET 0.000000 0.000000 0.000000
					}
				}
			}
		}
	}
}
MOTION
Frames: 8
Frame Time: 0.033333
0.282169 -2.557396 0.896714 -2.578200 2.026100 179.647200 -2.645100 1.553600 0.044400 -1.698100 -0.150600 0.007900 -0.189100 -0.808600 0.395600 0.453800 -0.086000 0.196200 2.402800 1.209300 -3.326200 -1.218500 -0.476800 -6.544300 -0.667300 12.021000 0.755800 -23.740700 -15.503800 -9.697300 0.000000 0.000000 17.986600 -8.877700 30.424300 2.173400 0.000000 0.000000 0.000000 0.000000 0.000000 0.000000 3.806500 -12.373300 1.975400 -16.011700 21.432900 1.376400 0.000000 0.000000 -15.556200 -9.844500 -27.832000 1.782000 0.000000 0.000000 0.000000 0.000000 0.000000 0.000000 -2.628700 0.427100 -32.019700 3.097700 0.000000 0.000000 -10.300900 2.352000 -0.215900 2.836300 0.000000 0.000000 -0.157800 3.658700 32.216100 -2.581300 0.000000 0.000000 -3.430200 8.084600 14.922200 -0.297500 0.000000 0.000000 
0.282334 -2.557285 0.896696 -2.559600 2.037900 179.636900 -2.657600 1.546900 0.044200 -1.705500 -0.152800 0.008100 -0.170900 -0.801400 0.400700 0.454400 -0.087100 0.190900 2.375300 1.188700 -3.319300 -1.194300 -0.486300 -6.579100 -0.731000 12.009200 0.684400 -23.719100 -15.545300 -9.640100 0.000000 0.000000 17.932800 -8.936900 30.436300 2.212900 0.000000 0.000000 0.000000 0.000000 0.000000 0.000000 3.822900 -12.356200 1.989200 -16.022800 21.463800 1.340300 0.000000 0.000000 -15.524600 -9.837600 -27.826800 1.800800 0.000000 0.000000 0.000000 0.000000 0.000000 0.000000 -2.606300 0.429700 -32.024700 3.105900 0.000000 0.000000 -10.324300 2.371100 -0.201600 2.841200 0.000000 0.000000 -0.121100 3.665200 32.238600 -2.602400 0.000000 0.000000 -3.420100 8.096600 14.909600 -0.311900 0.000000 0.000000 
0.282636 -2.557069 0.896671 -2.508100 2.045400 179.623800 -2.656800 1.529500 0.040200 -1.713100 -0.150700 0.009100 -0.149700 -0.803900 0.382800 0.454900 -0.086700 0.185500 2.353900 1.173700 -3.318900 -1.177800 -0.507900 -6.596500 -0.753400 11.983800 0.619900 -23.722300 -15.577500 -9.586900 0.000000 0.000000 17.877700 -9.056900 30.493900 2.289900 0.000000 0.000000 0.000000 0.000000 0.000000 0.000000 3.874600 -12.325600 2.037700 -16.031800 21.507600 1.274600 0.000000 0.000000 -15.471700 -9.820600 -27.818700 1.829700 0.000000 0.000000 0.000000 0.000000 0.000000 0.000000 -2.545700 0.420100 -31.997100 3.121500 0.000000 0.000000 -10.364800 2.384900 -0.215900 2.871300 0.000000 0.000000 -0.044900 3.659000 32.276600 -2.624300 0.000000 0.000000 -3.413200 8.108400 14.884300 -0.315500 0.000000 0.000000 
0.282992 -2.556876 0.896638 -2.474000 2.045900 179.620800 -2.667100 1.510100 0.037900 -1.723800 -0.149400 0.005400 -0.136600 -0.818700 0.342500 0.458100 -0.080700 0.182600 2.361000 1.182600 -3.344000 -1.185400 -0.536300 -6.581700 -0.722100 11.952800 0.627600 -23.760700 -15.561100 -9.629800 0.000000 0.000000 17.898200 -9.147600 30.559500 2.349200 0.000000 0.000000 0.000000 0.000000 0.000000 0.000000 3.939800 -12.284000 2.089400 -16.019800 21.529600 1.217500 0.000000 0.000000 -15.431000 -9.811200 -27.790900 1.841000 0.000000 0.000000 0.000000 0.000000 0.000000 0.000000 -2.509900 0.402500 -31.934400 3.152100 0.000000 0.000000 -10.410200 2.385500 -0.269200 2.933700 0.000000 0.000000 -0.003100 3.634200 32.302500 -2.615100 0.000000 0.000000 -3.419700 8.112400 14.863300 -0.285100 0.000000 0.000000 
0.283352 -2.556698 0.896620 -2.450000 2.049500 179.631100 -2.677500 1.499000 0.038500 -1.731100 -0.149700 0.003700 -0.132000 -0.832900 0.301800 0.463700 -0.073800 0.182900 2.380500 1.198300 -3.380600 -1.214000 -0.549400 -6.572200 -0.688700 11.930900 0.661400 -23.811200 -15.519800 -9.742000 0.000000 0.000000 17.985200 -9.179100 30.587300 2.370900 0.000000 0.000000 0.000000 0.000000 0.000000 0.000000 3.983700 -12.256200 2.108500 -15.984800 21.530900 1.189000 0.000000 0.000000 -15.410500 -9.810200 -27.754400 1.841000 0.000000 0.000000 0.000000 0.000000 0.000000 0.000000 -2.481500 0.386400 -31.896700 3.173900 0.000000 0.000000 -10.445700 2.388100 -0.310500 2.992900 0.000000 0.000000 0.020500 3.608000 32.306200 -2.590300 0.000000 0.000000 -3.428000 8.124900 14.853600 -0.258500 0.000000 0.000000 
0.283736 -2.556520 0.896617 -2.432700 2.066900 179.644400 -2.688700 1.501400 0.042900 -1.738100 -0.151900 0.003800 -0.125600 -0.831700 0.290400 0.469100 -0.071600 0.179300 2.382300 1.195100 -3.397300 -1.235900 -0.536500 -6.607500 -0.688300 11.905100 0.631600 -23.851900 -15.486200 -9.805900 0.000000 0.000000 18.056600 -9.206400 30.576500 2.382300 0.000000 0.000000 0.000000 0.000000 0.000000 0.000000 3.997100 -12.253200 2.099800 -15.948400 21.522200 1.166100 0.000000 0.000000 -15.387900 -9.781000 -27.742900 1.869700 0.000000 0.000000 0.000000 0.000000 0.000000 0.000000 -2.452600 0.380000 -31.907300 3.178400 0.000000 0.000000 -10.472800 2.416000 -0.314100 2.997300 0.000000 0.000000 0.043800 3.596000 32.291400 -2.576800 0.000000 0.000000 -3.424300 8.161200 14.860400 -0.286600 0.000000 0.000000 
0.284170 -2.556325 0.896623 -2.417100 2.090300 179.655800 -2.702300 1.506600 0.050500 -1.749200 -0.156600 0.003800 -0.112800 -0.812100 0.299700 0.472300 -0.070300 0.170000 2.376000 1.177400 -3.393900 -1.236400 -0.512000 -6.661500 -0.695000 11.871400 0.537000 -23.886000 -15.472200 -9.778400 0.000000 0.000000 18.062100 -9.242000 30.569700 2.395000 0.000000 0.000000 0.000000 0.000000 0.000000 0.000000 3.999400 -12.263600 2.096900 -15.936800 21.495900 1.126400 0.000000 0.000000 -15.362000 -9.748500 -27.759500 1.908000 0.000000 0.000000 0.000000 0.000000 0.000000 0.000000 -2.418600 0.374900 -31.957400 3.170500 0.000000 0.000000 -10.497300 2.450400 -0.281500 2.953200 0.000000 0.000000 0.073800 3.590300 32.274900 -2.579000 0.000000 0.000000 -3.411100 8.210300 14.871100 -0.338500 0.000000 0.000000 
0.284658 -2.556142 0.896620 -2.412100 2.098900 179.680900 -2.723500 1.498200 0.057000 -1.766000 -0.157700 0.004300 -0.104400 -0.794000 0.290100 0.476600 -0.063500 0.162700 2.392700 1.175500 -3.396100 -1.225400 -0.501900 -6.675700 -0.694900 11.853900 0.470300 -23.918700 -15.462800 -9.756900 0.000000 0.000000 18.043100 -9.251800 30.592400 2.387500 0.000000 0.000000 0.000000 0.000000 0.000000 0.000000 3.998400 -12.261000 2.109900 -15.937800 21.431200 1.073100 0.000000 0.000000 -15.358100 -9.786600 -27.773200 1.885900 0.000000 0.000000 0.000000 0.000000 0.000000 0.000000 -2.390400 0.350300 -32.017800 3.154500 0.000000 0.000000 -10.511900 2.456600 -0.247100 2.925700 0.000000 0.000000 0.081500 3.562400 32.273900 -2.560800 0.000000 0.000000 -3.407700 8.230900 14.857800 -0.343700 0.000000 0.000000 
